<svg width="26" height="25" viewBox="0 0 26 25" fill="none" xmlns="http://www.w3.org/2000/svg">
<path d="M4.10506 5.42582L0.163635 1.6486L1.88338 0L5.82359 3.77839H24.3482C24.5376 3.77837 24.7244 3.82081 24.8937 3.90231C25.063 3.98381 25.2101 4.10212 25.3232 4.2478C25.4363 4.39347 25.5123 4.56247 25.5452 4.74132C25.5781 4.92016 25.5669 5.1039 25.5125 5.27786L22.5956 14.5986C22.5206 14.8387 22.3668 15.0492 22.157 15.1988C21.9473 15.3485 21.6928 15.4293 21.4313 15.4293H6.53579V17.7595H19.9048V20.0896H5.32043C4.99809 20.0896 4.68896 19.9669 4.46104 19.7484C4.23311 19.5299 4.10506 19.2336 4.10506 18.9246V5.42582ZM6.53579 6.10857V13.0991H20.5271L22.7147 6.10857H6.53579ZM5.92811 24.75C5.44461 24.75 4.98091 24.5659 4.63902 24.2381C4.29713 23.9104 4.10506 23.4659 4.10506 23.0024C4.10506 22.5389 4.29713 22.0943 4.63902 21.7666C4.98091 21.4389 5.44461 21.2547 5.92811 21.2547C6.41161 21.2547 6.87531 21.4389 7.2172 21.7666C7.55909 22.0943 7.75116 22.5389 7.75116 23.0024C7.75116 23.4659 7.55909 23.9104 7.2172 24.2381C6.87531 24.5659 6.41161 24.75 5.92811 24.75ZM20.5125 24.75C20.029 24.75 19.5653 24.5659 19.2234 24.2381C18.8815 23.9104 18.6894 23.4659 18.6894 23.0024C18.6894 22.5389 18.8815 22.0943 19.2234 21.7666C19.5653 21.4389 20.029 21.2547 20.5125 21.2547C20.996 21.2547 21.4597 21.4389 21.8016 21.7666C22.1435 22.0943 22.3355 22.5389 22.3355 23.0024C22.3355 23.4659 22.1435 23.9104 21.8016 24.2381C21.4597 24.5659 20.996 24.75 20.5125 24.75Z" fill="white"/>
</svg>
